<svg id="Layer_1" data-name="Layer 1" xmlns="http://www.w3.org/2000/svg" viewBox="0 0 160 160"><defs><style>.cls-1{fill:#01cb01;}.cls-2{fill:#fe0000;}.cls-3{fill:#231f20;}.cls-4{fill:#fff;}.cls-5{fill:#fc0;}</style></defs><title>Artboard 1</title><g id="_Group_" data-name="&lt;Group&gt;"><g id="_Group_2" data-name="&lt;Group&gt;"><path id="_Path_" data-name="&lt;Path&gt;" class="cls-1" d="M35.52,106.48c-4.53-16,2.54-23.68,9.66-30.35,6.9-5.91,6.7-1.65,7.88-2.21s13.4-11.2,16.16-9.82,2,.2,3.94-1.38,10.64-6.08,13.4-5.4.39,2.25,1.58,1.46,5.91-4,11.43-4.55,3.35,1.2,3.35,1.2,7.1-3,11.43-1.31,2.76,2.1,2.76,2.1,4.73.62,7.88,1.1-2.76,7.63-3.74,9.08,3.55,1.45-2.56,9.92-3.15,7.69-3.15,9.26S111,93.87,105.09,97.81s-3.35,3.15-3.55,5.52S87.75,112.59,82.62,114s-3.69,1.38-3.23,3S40.05,122.44,35.52,106.48Z"/><ellipse id="_Ellipse_" data-name="&lt;Ellipse&gt;" class="cls-2" cx="69.03" cy="87.78" rx="23.65" ry="7.76" transform="translate(-20.02 20.4) rotate(-14.71)"/><path id="_Path_2" data-name="&lt;Path&gt;" class="cls-3" d="M78.31,100.93c2.6-3.84,15.52-10,13.6-19.16C93,85.92,83.64,92,71,95.28s-23.76,2.64-24.84-1.5c0,0,.59,7.1,13,9.22,16.26,2.81,3.4,4.73,3.84,5.76S78.4,112,87.71,106,75.71,104.78,78.31,100.93Z"/><path id="_Path_3" data-name="&lt;Path&gt;" class="cls-4" d="M55,97s28.87-7.08,35.83-22.21S32.59,78.7,41.51,99.6s58.07-7.77,54.94-9.07-40.54,29.86-53.61,8.62C32.21,81.06,97.37,59.8,89.42,74.7c0,0-4.07,12.47-33.69,21.26s16.1-15.77,24-14.5c0,0,.84,0,0-.66C73,78.86,21.22,104.8,55,97Z"/><path id="_Path_4" data-name="&lt;Path&gt;" class="cls-5" d="M78,44.3S63.48,67.06,59.34,85.09c0,0-.59,1.08.49,1.28S71,56.52,80,45.48c1.87-2.07.89-3.74.89-3.74S80.42,40.25,78,44.3Z"/><path id="_Path_5" data-name="&lt;Path&gt;" class="cls-5" d="M99.6,45.53S71.81,73.91,58.87,91.35c-2.66,3.1-1.48,3-1.18,3S96.42,53.59,99.6,48.71,100.51,44.59,99.6,45.53Z"/></g></g></svg>