<svg id="Layer_1" data-name="Layer 1" xmlns="http://www.w3.org/2000/svg" viewBox="0 0 200 200"><defs><style>.cls-1{fill:#fff;}</style></defs><title>Artboard 1</title><path class="cls-1" d="M158,51l-1.11-.09c-.38,0-.75,0-1.14,0H91.64l8.48,19.86h55.07A6.37,6.37,0,0,1,161.6,77v44.3a6.37,6.37,0,0,1-6.41,6.32h-3.65V140.4l5.31,7.06a26.42,26.42,0,0,0,24.59-26.13V77A26.29,26.29,0,0,0,158,51Z"/><polygon class="cls-1" points="127.96 140.41 127.96 127.66 112.98 127.66 107.25 141.03 101.43 127.66 85.88 127.66 84.95 127.66 84.01 127.66 64.15 127.66 63.22 127.66 62.29 127.66 53.73 127.66 53.73 70.71 62.29 70.71 62.29 59.59 55.75 50.86 18.55 50.86 33.88 71.33 33.88 127.04 18.55 147.52 56.97 147.52 58.13 147.52 59.3 147.52 88.89 147.52 90.06 147.52 91.23 147.52 122.64 147.52 127.96 140.41"/><path class="cls-1" d="M157.15,49l8-10.56H129.51L125,49H155.2Q156.18,49,157.15,49Z"/><polygon class="cls-1" points="57.9 149.39 48.83 161.51 99.41 161.51 90.3 149.39 57.9 149.39"/><polygon class="cls-1" points="155.26 148.45 154.56 147.52 149.68 141.03 149.68 127.66 149.68 126.72 149.68 125.79 149.68 72.58 114.95 72.58 106.92 91.39 98.89 72.58 98.48 71.64 98.09 70.71 89.61 50.86 89.21 49.92 88.81 48.98 84.33 38.49 48.83 38.49 56.69 48.98 57.38 49.92 58.09 50.86 64.15 58.97 64.15 70.71 64.15 71.64 64.15 72.58 64.15 125.79 84.01 125.79 84.01 82.97 102.66 125.79 103.06 126.72 103.47 127.66 107.24 136.32 110.95 127.66 111.35 126.72 111.75 125.79 129.82 83.65 129.82 125.79 129.82 126.72 129.82 127.66 129.82 141.03 124.97 147.52 124.27 148.45 123.57 149.39 114.5 161.51 165.08 161.51 155.96 149.38 155.26 148.45"/></svg>