<svg xmlns="http://www.w3.org/2000/svg" viewBox="0 0 160 160"><defs><style>.cls-1{fill:#a67c52;}.cls-2{fill:#081a4c;}.cls-3{fill:#fff;}.cls-4{fill:#999;}.cls-5{fill:#d9e021;}</style></defs><title>Artboard 1</title><g id="slide_3" data-name="slide 3"><path class="cls-1" d="M95.37,81.62,97.83,88s1.35-2.64,7.13-5.46l.89,5.28s-4.76,8.65-9.48,8.23L86.49,87l5.59-3.81Z"/><path class="cls-1" d="M68.68,65.69s-7.87-7.77-13.39-5.39l-2.45,9.29L58,73.27l2.25-4.46S65.1,75.32,67,76.42,68.68,65.69,68.68,65.69Z"/><circle class="cls-2" cx="92.99" cy="60.65" r="22"/><path class="cls-2" d="M118.91,73.76a71.17,71.17,0,0,1-12.07-1.56c-7-1.33-14-3.07-14.09-3.08l.48-1.94c11.75,2.93,25.31,5.36,27.65,4.41-.38-.57-2.1-2.26-9.84-6.21l.91-1.78c9.92,5.06,11.54,7.09,10.93,8.71C122.59,73.05,121.93,73.76,118.91,73.76Z"/><path class="cls-2" d="M113,82.3c-2.24,0-7.5-1.2-20.33-6.22l.73-1.86c7.31,2.86,15.8,5.71,18.88,6.12A46.45,46.45,0,0,0,106.1,76l1.07-1.69c7.87,5,8.09,6.18,7.56,7.23C114.57,81.84,114.34,82.3,113,82.3Z"/><rect class="cls-2" x="108.58" y="75.05" width="14.56" height="2" transform="translate(-21.21 96.52) rotate(-41.77)"/><rect class="cls-2" x="109.29" y="72.62" width="11.4" height="2" transform="translate(-19.36 97.97) rotate(-42.9)"/><ellipse class="cls-3" cx="100.58" cy="64.46" rx="7.46" ry="3.82" transform="translate(9.18 141.37) rotate(-72.73)"/><ellipse class="cls-3" cx="109.04" cy="63.62" rx="6.19" ry="3.17" transform="translate(15.93 148.87) rotate(-72.73)"/><circle class="cls-2" cx="101.36" cy="64.43" r="1.65"/><circle class="cls-2" cx="109.88" cy="63.38" r="1.41"/><path class="cls-2" d="M97.28,58.55s3.14,7.46,8.08,6.59.08-10.91.08-10.91Z"/><path class="cls-2" d="M114.29,59.9s-8.48,6.55-9.65,4.88,2.83-8.65,2.83-8.65S116.08,57.19,114.29,59.9Z"/><ellipse class="cls-2" cx="74.53" cy="74.22" rx="7.39" ry="15.14" transform="translate(-30.25 65) rotate(-39.85)"/><ellipse class="cls-2" cx="90.52" cy="82.39" rx="10.71" ry="4.95"/><path class="cls-2" d="M91.62,85.59,77.87,103.28a39.75,39.75,0,0,0-17.25-1.87l6.22-27.18,15.41,7.15Z"/><polygon class="cls-4" points="97.17 99.67 100.17 113.84 94.5 117.42 87.59 105.87 97.17 99.67"/><ellipse class="cls-5" cx="44.21" cy="98.67" rx="9.52" ry="3.58" transform="translate(-56.82 60.16) rotate(-45)"/><ellipse class="cls-5" cx="103.61" cy="116.13" rx="10.76" ry="4.28" transform="translate(-30.23 36.71) rotate(-17.58)"/><path class="cls-4" d="M56.87,102.55,50,94.9c-1.82,0-2.82,2.17-2.51,5.23l5.83,12.13Z"/><ellipse class="cls-2" cx="61.96" cy="105.09" rx="11.77" ry="6.68" transform="translate(-57.32 79.49) rotate(-47.37)"/><circle class="cls-5" cx="111.31" cy="82.54" r="6.71" transform="translate(-25.82 62.59) rotate(-28.28)"/><ellipse class="cls-5" cx="106.2" cy="84.39" rx="2.61" ry="5.92" transform="translate(-27.31 60.39) rotate(-28.28)"/><circle class="cls-5" cx="54.39" cy="75.6" r="5.47" transform="translate(-33.2 107.24) rotate(-74.13)"/><ellipse class="cls-5" cx="56.21" cy="71.56" rx="2.13" ry="4.82" transform="translate(-28 106.05) rotate(-74.13)"/><path class="cls-4" d="M72.85,95.55l-5.19-2.71,2.61-5.21,1.79-.7,2.84,1.51L76,86.58l-2.33-1.25-.6,1.12-1.74-.93,1.2-2.41,1.72-.74,4.09,2.21.29,1.73-2.52,4-1.55.58-3-1.6L70.09,92l2.2,1.15.53-.91,1.57.83Z"/><path class="cls-4" d="M80.38,95.78l-.53-.28-.9,1.19.51.27-1.13,1.47-2.82-1.47,1-1.51.57.3L78,94.52l-2.26-1.19.51-2,7.06-4,1.87,1L81,93.91l.59.31Zm-1-2.7,1.85-2.58-3.35,1.79Z"/><ellipse class="cls-2" cx="82.89" cy="101.23" rx="15.36" ry="5.62" transform="translate(-13.42 12.67) rotate(-8.09)"/></g></svg>