<svg id="Layer_1" data-name="Layer 1" xmlns="http://www.w3.org/2000/svg" viewBox="0 0 800 100"><defs><style>.cls-1{fill:#a67c52;}.cls-2{fill:#081a4c;}.cls-3{fill:#fff;}.cls-4{fill:#999;}.cls-5{fill:#d9e021;}</style></defs><title>Artboard 1</title><path class="cls-1" d="M55.57,55.18l-2.34,6.45s2.75-1.11,9,.55L59.4,66.76s-9.26,3.41-12.55,0V56.93l5.22-2.75Z"/><path class="cls-1" d="M24.61,45.31S14.16,48.9,13.82,54.9l7.23,6.33,5.6-3-3-4s5.67.25,7.5-1S24.61,45.31,24.61,45.31Z"/><circle class="cls-2" cx="56.99" cy="25.06" r="22"/><path class="cls-2" d="M82.9,38.17a71.17,71.17,0,0,1-12.07-1.56c-7-1.33-14-3.07-14.09-3.08l.48-1.94C69,34.52,82.54,37,84.88,36c-.38-.57-2.1-2.26-9.84-6.21L75.94,28c9.92,5.06,11.54,7.09,10.93,8.71C86.59,37.46,85.93,38.17,82.9,38.17Z"/><path class="cls-2" d="M77,46.72c-2.24,0-7.5-1.2-20.33-6.22l.73-1.86c7.31,2.86,15.8,5.71,18.88,6.12a46.45,46.45,0,0,0-6.13-4.34l1.07-1.69c7.87,5,8.09,6.18,7.56,7.23C78.57,46.26,78.34,46.72,77,46.72Z"/><rect class="cls-2" x="72.58" y="39.46" width="14.56" height="2" transform="translate(-6.65 63.49) rotate(-41.77)"/><rect class="cls-2" x="73.29" y="37.04" width="11.4" height="2" transform="translate(-4.76 63.95) rotate(-42.9)"/><ellipse class="cls-3" cx="64.58" cy="28.87" rx="7.46" ry="3.82" transform="translate(17.84 81.97) rotate(-72.73)"/><ellipse class="cls-3" cx="73.04" cy="28.03" rx="6.19" ry="3.17" transform="translate(24.6 89.46) rotate(-72.73)"/><circle class="cls-2" cx="65.36" cy="28.84" r="1.65"/><circle class="cls-2" cx="73.88" cy="27.79" r="1.41"/><path class="cls-2" d="M61.28,23s3.14,7.46,8.08,6.59.08-10.91.08-10.91Z"/><path class="cls-2" d="M78.29,24.31s-8.48,6.55-9.65,4.88,2.83-8.65,2.83-8.65S80.08,21.6,78.29,24.31Z"/><ellipse class="cls-2" cx="34.35" cy="43" rx="15.14" ry="7.39"/><ellipse class="cls-2" cx="52.31" cy="48.89" rx="4.95" ry="10.71" transform="matrix(0.68, -0.74, 0.74, 0.68, -19.09, 54.31)"/><path class="cls-2" d="M53.24,53.06,41.86,67.69a39.75,39.75,0,0,0-17.25-1.87l5.13-21.87,16.5,1.85Z"/><polygon class="cls-4" points="50.49 79.06 32.61 91.06 24.49 91.06 39.93 74.44 50.49 79.06"/><path class="cls-5" d="M22.36,92.31l6.13,4.63H45.74s2.88-8.12-13.12-5.87l-6.3-2Z"/><ellipse class="cls-5" cx="16.73" cy="72.28" rx="9.52" ry="3.58" transform="translate(-56.96 80.88) rotate(-83.62)"/><path class="cls-4" d="M24.61,74.44l-5.43-8.8a9.08,9.08,0,0,0-1.7,5.6l3.76,10.35Z"/><ellipse class="cls-2" cx="38.53" cy="71.24" rx="5.62" ry="15.36" transform="translate(-42.42 74.01) rotate(-63.56)"/><ellipse class="cls-2" cx="26.65" cy="72.46" rx="11.77" ry="5.73" transform="translate(-50.25 79.33) rotate(-74.91)"/><circle class="cls-5" cx="62.95" cy="64.09" r="5.47"/><ellipse class="cls-5" cx="58.58" cy="63.45" rx="2.13" ry="4.82"/><circle class="cls-5" cx="27.12" cy="62.52" r="5.47" transform="translate(-37.36 40.47) rotate(-47.67)"/><ellipse class="cls-5" cx="24.32" cy="59.09" rx="4.82" ry="2.13" transform="translate(-35.74 37.27) rotate(-47.67)"/><path class="cls-4" d="M36.85,60l-5.19-2.71L34.26,52l1.79-.7,2.84,1.51L40,51l-2.33-1.25-.6,1.12-1.74-.93,1.2-2.41,1.72-.74L42.33,49l.29,1.73-2.52,4-1.55.58-3-1.6-1.42,2.64,2.2,1.15.53-.91,1.57.83Z"/><path class="cls-4" d="M44.38,60.19l-.53-.28-.9,1.19.51.27-1.13,1.47-2.82-1.47,1-1.51.57.3L42,58.93l-2.26-1.19.51-2,7.06-4,1.87,1L45,58.32l.59.31Zm-1-2.7,1.85-2.58L41.93,56.7Z"/><path class="cls-1" d="M155.34,55.77l-4.39,2.33s2,.74,4.55,4.65l-3.72,1.11s-6.64-2.66-6.75-6.09l4.77-5.29,4.14,1.05Z"/><circle class="cls-2" cx="156.55" cy="25.06" r="22"/><path class="cls-2" d="M182.46,38.17a71.17,71.17,0,0,1-12.07-1.56c-7-1.33-14-3.07-14.09-3.08l.48-1.94C168.54,34.52,182.1,37,184.43,36c-.38-.57-2.1-2.26-9.84-6.21L175.5,28c9.92,5.06,11.54,7.09,10.93,8.71C186.15,37.46,185.49,38.17,182.46,38.17Z"/><path class="cls-2" d="M176.51,46.72c-2.24,0-7.5-1.2-20.33-6.22l.73-1.86c7.31,2.86,15.8,5.71,18.88,6.12a46.45,46.45,0,0,0-6.13-4.34l1.07-1.69c7.87,5,8.09,6.18,7.56,7.23C178.13,46.26,177.9,46.72,176.51,46.72Z"/><rect class="cls-2" x="172.13" y="39.46" width="14.56" height="2" transform="translate(18.65 129.81) rotate(-41.77)"/><rect class="cls-2" x="172.84" y="37.04" width="11.4" height="2" transform="translate(21.87 131.72) rotate(-42.9)"/><ellipse class="cls-3" cx="164.13" cy="28.87" rx="7.46" ry="3.82" transform="translate(87.85 177.04) rotate(-72.73)"/><ellipse class="cls-3" cx="172.6" cy="28.03" rx="6.19" ry="3.17" transform="translate(94.6 184.53) rotate(-72.73)"/><circle class="cls-2" cx="164.92" cy="28.84" r="1.65"/><circle class="cls-2" cx="173.44" cy="27.79" r="1.41"/><path class="cls-2" d="M160.83,23s3.14,7.46,8.08,6.59.08-10.91.08-10.91Z"/><path class="cls-2" d="M177.85,24.31s-8.48,6.55-9.65,4.88S171,20.54,171,20.54,179.64,21.6,177.85,24.31Z"/><ellipse class="cls-2" cx="133.9" cy="43" rx="15.14" ry="7.39"/><ellipse class="cls-2" cx="151.87" cy="48.89" rx="4.95" ry="10.71" transform="matrix(0.68, -0.74, 0.74, 0.68, 13.09, 127.59)"/><path class="cls-2" d="M152.8,53.06,141.42,67.69a39.75,39.75,0,0,0-17.25-1.87l5.13-21.87,16.5,1.85Z"/><polygon class="cls-4" points="124.17 83.26 112.23 87.07 108.93 82.68 122.59 72.46 124.17 83.26"/><path class="cls-5" d="M105.09,86.49,115.25,97h7.69s-.21-9.91-10.7-9.91l-2.67-5.32Z"/><ellipse class="cls-5" cx="132.8" cy="84.34" rx="2.79" ry="6.75" transform="matrix(0.99, -0.16, 0.16, 0.99, -11.53, 21.75)"/><path class="cls-4" d="M139,75.83l-6.57,3.23c-.5.69-.25,4.62,2.42,4.16L150,79.06Z"/><ellipse class="cls-2" cx="138.08" cy="71.24" rx="5.62" ry="15.36" transform="translate(12.81 163.16) rotate(-63.56)"/><path class="cls-1" d="M122.66,47s-4.31,10.18-.06,14.43l9.54-1.16,1.5-6.17-5-.44A7.18,7.18,0,0,0,130.43,50C130.76,47.83,122.66,47,122.66,47Z"/><ellipse class="cls-2" cx="126.21" cy="72.46" rx="11.77" ry="5.73" transform="translate(23.4 175.46) rotate(-74.91)"/><circle class="cls-5" cx="154.99" cy="64.15" r="3.96" transform="translate(3.54 136.27) rotate(-47.95)"/><ellipse class="cls-5" cx="152.94" cy="61.68" rx="3.49" ry="1.54" transform="translate(4.7 133.94) rotate(-47.95)"/><path class="cls-4" d="M136.4,60l-5.19-2.71L133.82,52l1.79-.7,2.84,1.51L139.54,51l-2.33-1.25-.6,1.12-1.74-.93,1.2-2.41,1.72-.74L141.89,49l.29,1.73-2.52,4-1.55.58-3-1.6-1.42,2.64,2.2,1.15.53-.91,1.57.83Z"/><path class="cls-4" d="M143.94,60.19l-.53-.28-.9,1.19.51.27-1.13,1.47-2.82-1.47,1-1.51.57.3.86-1.21-2.26-1.19.51-2,7.06-4,1.87,1-4.18,5.54.59.31Zm-1-2.7,1.85-2.58-3.35,1.79Z"/><circle class="cls-5" cx="137.15" cy="56.59" r="5.47" transform="matrix(0.99, -0.1, 0.1, 0.99, -5.04, 14.22)"/><ellipse class="cls-5" cx="132.73" cy="56.39" rx="2.13" ry="4.82" transform="translate(-5.04 13.77) rotate(-5.83)"/><path class="cls-1" d="M258.93,46l2.46,6.4s1.35-2.64,7.13-5.46l.89,5.28s-4.76,8.65-9.48,8.23L250,51.38l5.59-3.81Z"/><path class="cls-1" d="M232.23,30.1s-7.87-7.77-13.39-5.39L216.39,34l5.18,3.68,2.25-4.46s4.84,6.52,6.73,7.62S232.23,30.1,232.23,30.1Z"/><circle class="cls-2" cx="256.54" cy="25.06" r="22"/><path class="cls-2" d="M282.46,38.17a71.17,71.17,0,0,1-12.07-1.56c-7-1.33-14-3.07-14.09-3.08l.48-1.94C268.53,34.52,282.09,37,284.43,36c-.38-.57-2.1-2.26-9.84-6.21L275.5,28c9.92,5.06,11.54,7.09,10.93,8.71C286.14,37.46,285.48,38.17,282.46,38.17Z"/><path class="cls-2" d="M276.51,46.72c-2.24,0-7.5-1.2-20.33-6.22l.73-1.86c7.31,2.86,15.8,5.71,18.88,6.12a46.45,46.45,0,0,0-6.13-4.34l1.07-1.69c7.87,5,8.09,6.18,7.56,7.23C278.12,46.26,277.89,46.72,276.51,46.72Z"/><rect class="cls-2" x="272.13" y="39.46" width="14.56" height="2" transform="translate(44.07 196.42) rotate(-41.77)"/><rect class="cls-2" x="272.84" y="37.04" width="11.4" height="2" transform="translate(48.61 199.79) rotate(-42.9)"/><ellipse class="cls-3" cx="264.13" cy="28.87" rx="7.46" ry="3.82" transform="translate(158.17 272.53) rotate(-72.73)"/><ellipse class="cls-3" cx="272.59" cy="28.03" rx="6.19" ry="3.17" transform="translate(164.92 280.02) rotate(-72.73)"/><circle class="cls-2" cx="264.91" cy="28.84" r="1.65"/><circle class="cls-2" cx="273.43" cy="27.79" r="1.41"/><path class="cls-2" d="M260.83,23s3.14,7.46,8.08,6.59.08-10.91.08-10.91Z"/><path class="cls-2" d="M277.84,24.31s-8.48,6.55-9.65,4.88S271,20.54,271,20.54,279.63,21.6,277.84,24.31Z"/><ellipse class="cls-2" cx="238.08" cy="38.63" rx="7.39" ry="15.14" transform="translate(30.55 161.54) rotate(-39.85)"/><ellipse class="cls-2" cx="254.07" cy="46.8" rx="10.71" ry="4.95"/><path class="cls-2" d="M255.17,50,241.42,67.69a39.75,39.75,0,0,0-17.25-1.87l6.22-27.18,15.41,7.15Z"/><polygon class="cls-4" points="260.72 64.08 263.72 78.25 258.05 81.83 251.14 70.28 260.72 64.08"/><ellipse class="cls-5" cx="207.76" cy="63.08" rx="9.52" ry="3.58" transform="translate(16.24 165.38) rotate(-45)"/><ellipse class="cls-5" cx="267.16" cy="80.54" rx="10.76" ry="4.28" transform="translate(-11.85 84.44) rotate(-17.58)"/><path class="cls-4" d="M220.42,67l-6.87-7.65c-1.82,0-2.82,2.17-2.51,5.23l5.83,12.13Z"/><ellipse class="cls-2" cx="225.51" cy="69.5" rx="11.77" ry="6.68" transform="translate(21.64 188.33) rotate(-47.37)"/><circle class="cls-5" cx="274.86" cy="46.95" r="6.71" transform="translate(10.56 135.83) rotate(-28.28)"/><ellipse class="cls-5" cx="269.75" cy="48.81" rx="2.61" ry="5.92" transform="translate(9.07 133.63) rotate(-28.28)"/><circle class="cls-5" cx="217.94" cy="40.01" r="5.47" transform="translate(119.85 238.7) rotate(-74.13)"/><ellipse class="cls-5" cx="219.76" cy="35.97" rx="2.13" ry="4.82" transform="translate(125.05 237.51) rotate(-74.13)"/><path class="cls-4" d="M236.4,60l-5.19-2.71L233.81,52l1.79-.7,2.84,1.51L239.53,51l-2.33-1.25-.6,1.12-1.74-.93,1.2-2.41,1.72-.74L241.88,49l.29,1.73-2.52,4-1.55.58-3-1.6-1.42,2.64,2.2,1.15.53-.91,1.57.83Z"/><path class="cls-4" d="M243.93,60.19l-.53-.28-.9,1.19.51.27-1.13,1.47-2.82-1.47,1-1.51.57.3.86-1.21-2.26-1.19.51-2,7.06-4,1.87,1-4.18,5.54.59.31Zm-1-2.7,1.85-2.58-3.35,1.79Z"/><ellipse class="cls-2" cx="246.44" cy="65.64" rx="15.36" ry="5.62" transform="translate(-6.78 35.33) rotate(-8.09)"/><path class="cls-1" d="M330.46,30.48s-9.76-5.2-14.37-1.34l.31,9.61,6,2,.88-4.92s6.49,4.86,8.63,5.38S330.46,30.48,330.46,30.48Z"/><circle class="cls-2" cx="356.54" cy="25.06" r="22"/><path class="cls-2" d="M382.46,38.17a71.17,71.17,0,0,1-12.07-1.56c-7-1.33-14-3.07-14.09-3.08l.48-1.94C368.53,34.52,382.09,37,384.43,36c-.38-.57-2.1-2.26-9.84-6.21L375.5,28c9.92,5.06,11.54,7.09,10.93,8.71C386.14,37.46,385.48,38.17,382.46,38.17Z"/><path class="cls-2" d="M376.51,46.72c-2.24,0-7.5-1.2-20.33-6.22l.73-1.86c7.31,2.86,15.8,5.71,18.88,6.12a46.45,46.45,0,0,0-6.13-4.34l1.07-1.69c7.87,5,8.09,6.18,7.56,7.23C378.12,46.26,377.89,46.72,376.51,46.72Z"/><rect class="cls-2" x="372.13" y="39.46" width="14.56" height="2" transform="translate(69.49 263.04) rotate(-41.77)"/><rect class="cls-2" x="372.84" y="37.04" width="11.4" height="2" transform="translate(75.36 267.87) rotate(-42.9)"/><ellipse class="cls-3" cx="364.13" cy="28.87" rx="7.46" ry="3.82" transform="translate(228.49 368.02) rotate(-72.73)"/><ellipse class="cls-3" cx="372.59" cy="28.03" rx="6.19" ry="3.17" transform="translate(235.24 375.52) rotate(-72.73)"/><circle class="cls-2" cx="364.91" cy="28.84" r="1.65"/><circle class="cls-2" cx="373.43" cy="27.79" r="1.41"/><path class="cls-2" d="M360.83,23s3.14,7.46,8.08,6.59.08-10.91.08-10.91Z"/><path class="cls-2" d="M377.84,24.31s-8.48,6.55-9.65,4.88S371,20.54,371,20.54,379.63,21.6,377.84,24.31Z"/><ellipse class="cls-2" cx="338.08" cy="38.63" rx="7.39" ry="15.14" transform="translate(53.79 225.63) rotate(-39.85)"/><path class="cls-1" d="M359.7,45.32l-.7,6.82s2.4-1.75,8.83-1.65l-1.58,5.12s-8.15,5.57-12.17,3.07l-4.72-12.59,6.7-.88Z"/><circle class="cls-5" cx="373.51" cy="53.33" r="6.71" transform="translate(-1.25 9.68) rotate(-1.48)"/><ellipse class="cls-5" cx="368.11" cy="52.68" rx="2.61" ry="5.92" transform="translate(-1.24 9.54) rotate(-1.48)"/><ellipse class="cls-2" cx="354.07" cy="46.8" rx="10.71" ry="4.95"/><path class="cls-2" d="M355.17,50,341.42,67.69a39.75,39.75,0,0,0-17.25-1.87l6.22-27.18,15.41,7.15Z"/><polygon class="cls-4" points="351.93 71 345.88 91.04 339.31 92.37 338.55 71 351.93 71"/><ellipse class="cls-5" cx="309.78" cy="69.95" rx="9.52" ry="3.58" transform="translate(119.8 324.44) rotate(-65.98)"/><path class="cls-4" d="M323,69l-9.16-4.69c-1.69.65-1.85,3-.47,5.78l9.79,9.24Z"/><ellipse class="cls-2" cx="327.88" cy="69.5" rx="11.77" ry="6.68" transform="translate(134.38 343.16) rotate(-66.7)"/><circle class="cls-5" cx="319.59" cy="44.05" r="5.47" transform="translate(-0.53 4) rotate(-0.72)"/><ellipse class="cls-5" cx="320.18" cy="39.67" rx="4.82" ry="2.13" transform="translate(-0.47 4.01) rotate(-0.72)"/><path class="cls-4" d="M336.4,60l-5.19-2.71L333.81,52l1.79-.7,2.84,1.51L339.53,51l-2.33-1.25-.6,1.12-1.74-.93,1.2-2.41,1.72-.74L341.88,49l.29,1.73-2.52,4-1.55.58-3-1.6-1.42,2.64,2.2,1.15.53-.91,1.57.83Z"/><path class="cls-4" d="M343.93,60.19l-.53-.28-.9,1.19.51.27-1.13,1.47-2.82-1.47,1-1.51.57.3.86-1.21-2.26-1.19.51-2,7.06-4,1.87,1-4.18,5.54.59.31Zm-1-2.7,1.85-2.58-3.35,1.79Z"/><ellipse class="cls-2" cx="339.13" cy="66.7" rx="5.62" ry="14.81" transform="translate(201.52 383.75) rotate(-77.66)"/><path class="cls-5" d="M335,92.26l6.13,4.63h17.25s2.88-8.12-13.12-5.87L339,89Z"/><path class="cls-1" d="M456,55.18l-2.34,6.45s2.75-1.11,9,.55l-2.79,4.57s-9.26,3.41-12.55,0V56.93l5.22-2.75Z"/><path class="cls-1" d="M425.06,45.31S414.6,48.9,414.27,54.9l7.23,6.33,5.6-3-3-4s5.67.25,7.5-1S425.06,45.31,425.06,45.31Z"/><circle class="cls-2" cx="457.44" cy="25.06" r="22"/><path class="cls-2" d="M483.35,38.17a71.17,71.17,0,0,1-12.07-1.56c-7-1.33-14-3.07-14.09-3.08l.48-1.94C469.43,34.52,483,37,485.33,36c-.38-.57-2.1-2.26-9.84-6.21l.91-1.78c9.92,5.06,11.54,7.09,10.93,8.71C487,37.46,486.38,38.17,483.35,38.17Z"/><path class="cls-2" d="M477.4,46.72c-2.24,0-7.5-1.2-20.33-6.22l.73-1.86c7.31,2.86,15.8,5.71,18.88,6.12a46.45,46.45,0,0,0-6.13-4.34l1.07-1.69c7.87,5,8.09,6.18,7.56,7.23C479,46.26,478.79,46.72,477.4,46.72Z"/><rect class="cls-2" x="473.02" y="39.46" width="14.56" height="2" transform="translate(95.14 330.26) rotate(-41.77)"/><rect class="cls-2" x="473.74" y="37.04" width="11.4" height="2" transform="translate(102.35 336.55) rotate(-42.9)"/><ellipse class="cls-3" cx="465.03" cy="28.87" rx="7.46" ry="3.82" transform="translate(299.44 464.37) rotate(-72.73)"/><ellipse class="cls-3" cx="473.49" cy="28.03" rx="6.19" ry="3.17" transform="translate(306.19 471.87) rotate(-72.73)"/><circle class="cls-2" cx="465.81" cy="28.84" r="1.65"/><circle class="cls-2" cx="474.33" cy="27.79" r="1.41"/><path class="cls-2" d="M461.73,23s3.14,7.46,8.08,6.59.08-10.91.08-10.91Z"/><path class="cls-2" d="M478.74,24.31s-8.48,6.55-9.65,4.88,2.83-8.65,2.83-8.65S480.53,21.6,478.74,24.31Z"/><ellipse class="cls-2" cx="434.79" cy="43" rx="15.14" ry="7.39"/><ellipse class="cls-2" cx="452.76" cy="48.89" rx="4.95" ry="10.71" transform="translate(110.32 349.08) rotate(-47.4)"/><path class="cls-2" d="M453.69,53.06,442.31,67.69a39.75,39.75,0,0,0-17.25-1.87l5.13-21.87,16.5,1.85Z"/><polygon class="cls-4" points="450.94 79.06 433.06 91.06 424.94 91.06 440.38 74.44 450.94 79.06"/><path class="cls-5" d="M422.81,92.31l6.13,4.63h17.25s2.88-8.12-13.12-5.87l-6.3-2Z"/><ellipse class="cls-5" cx="417.18" cy="72.28" rx="9.52" ry="3.58" transform="translate(298.99 478.85) rotate(-83.62)"/><path class="cls-4" d="M425.06,74.44l-5.43-8.8a9.08,9.08,0,0,0-1.7,5.6l3.76,10.35Z"/><ellipse class="cls-2" cx="438.97" cy="71.24" rx="5.62" ry="15.36" transform="translate(179.72 432.57) rotate(-63.56)"/><ellipse class="cls-2" cx="427.1" cy="72.46" rx="11.77" ry="5.73" transform="translate(245.96 465.97) rotate(-74.91)"/><circle class="cls-5" cx="463.4" cy="64.09" r="5.47"/><ellipse class="cls-5" cx="459.02" cy="63.45" rx="2.13" ry="4.82"/><circle class="cls-5" cx="427.57" cy="62.52" r="5.47" transform="translate(93.41 336.5) rotate(-47.67)"/><ellipse class="cls-5" cx="424.76" cy="59.09" rx="4.82" ry="2.13" transform="translate(95.03 333.31) rotate(-47.67)"/><path class="cls-4" d="M437.29,60l-5.19-2.71L434.71,52l1.79-.7,2.84,1.51L440.43,51l-2.33-1.25-.6,1.12-1.74-.93,1.2-2.41,1.72-.74L442.78,49l.29,1.73-2.52,4-1.55.58-3-1.6-1.42,2.64,2.2,1.15.53-.91,1.57.83Z"/><path class="cls-4" d="M444.83,60.19l-.53-.28-.9,1.19.51.27-1.13,1.47L440,61.36l1-1.51.57.3.86-1.21-2.26-1.19.51-2,7.06-4,1.87,1-4.18,5.54.59.31Zm-1-2.7,1.85-2.58-3.35,1.79Z"/><path class="cls-1" d="M555.78,55.77l-4.39,2.33s2,.74,4.55,4.65l-3.72,1.11s-6.64-2.66-6.75-6.09l4.77-5.29,4.14,1.05Z"/><circle class="cls-2" cx="557" cy="25.06" r="22"/><path class="cls-2" d="M582.91,38.17a71.17,71.17,0,0,1-12.07-1.56c-7-1.33-14-3.07-14.09-3.08l.48-1.94C569,34.52,582.55,37,584.88,36c-.38-.57-2.1-2.26-9.84-6.21l.91-1.78c9.92,5.06,11.54,7.09,10.93,8.71C586.6,37.46,585.94,38.17,582.91,38.17Z"/><path class="cls-2" d="M577,46.72c-2.24,0-7.5-1.2-20.33-6.22l.73-1.86c7.31,2.86,15.8,5.71,18.88,6.12a46.45,46.45,0,0,0-6.13-4.34l1.07-1.69c7.87,5,8.09,6.18,7.56,7.23C578.58,46.26,578.34,46.72,577,46.72Z"/><rect class="cls-2" x="572.58" y="39.46" width="14.56" height="2" transform="translate(120.45 396.58) rotate(-41.77)"/><rect class="cls-2" x="573.29" y="37.04" width="11.4" height="2" transform="translate(128.98 404.33) rotate(-42.9)"/><ellipse class="cls-3" cx="564.58" cy="28.87" rx="7.46" ry="3.82" transform="translate(369.45 559.44) rotate(-72.73)"/><ellipse class="cls-3" cx="573.05" cy="28.03" rx="6.19" ry="3.17" transform="translate(376.2 566.94) rotate(-72.73)"/><circle class="cls-2" cx="565.36" cy="28.84" r="1.65"/><circle class="cls-2" cx="573.89" cy="27.79" r="1.41"/><path class="cls-2" d="M561.28,23s3.14,7.46,8.08,6.59.08-10.91.08-10.91Z"/><path class="cls-2" d="M578.3,24.31s-8.48,6.55-9.65,4.88,2.83-8.65,2.83-8.65S580.09,21.6,578.3,24.31Z"/><ellipse class="cls-2" cx="534.35" cy="43" rx="15.14" ry="7.39"/><ellipse class="cls-2" cx="552.32" cy="48.89" rx="4.95" ry="10.71" transform="translate(142.49 422.37) rotate(-47.4)"/><path class="cls-2" d="M553.25,53.06,541.87,67.69a39.75,39.75,0,0,0-17.25-1.87l5.13-21.87,16.5,1.85Z"/><polygon class="cls-4" points="524.62 83.26 512.68 87.07 509.38 82.68 523.04 72.46 524.62 83.26"/><path class="cls-5" d="M505.54,86.49,515.69,97h7.69s-.21-9.91-10.7-9.91L510,81.75Z"/><ellipse class="cls-5" cx="533.25" cy="84.34" rx="2.79" ry="6.75" transform="translate(-6.63 84.22) rotate(-8.97)"/><path class="cls-4" d="M539.45,75.83l-6.57,3.23c-.5.69-.25,4.62,2.42,4.16l15.14-4.16Z"/><ellipse class="cls-2" cx="538.53" cy="71.24" rx="5.62" ry="15.36" transform="translate(234.95 521.71) rotate(-63.56)"/><path class="cls-1" d="M523.11,47S518.8,57.16,523,61.41l9.54-1.16,1.5-6.17-5-.44A7.18,7.18,0,0,0,530.88,50C531.2,47.83,523.11,47,523.11,47Z"/><ellipse class="cls-2" cx="526.66" cy="72.46" rx="11.77" ry="5.73" transform="translate(319.6 562.1) rotate(-74.91)"/><circle class="cls-5" cx="555.43" cy="64.15" r="3.96" transform="translate(135.78 433.62) rotate(-47.95)"/><ellipse class="cls-5" cx="553.39" cy="61.68" rx="3.49" ry="1.54" transform="translate(136.94 431.29) rotate(-47.95)"/><path class="cls-4" d="M536.85,60l-5.19-2.71L534.27,52l1.79-.7,2.84,1.51L540,51l-2.33-1.25-.6,1.12-1.74-.93,1.2-2.41,1.72-.74L542.34,49l.29,1.73-2.52,4-1.55.58-3-1.6-1.42,2.64,2.2,1.15.53-.91,1.57.83Z"/><path class="cls-4" d="M544.39,60.19l-.53-.28L543,61.1l.51.27-1.13,1.47-2.82-1.47,1-1.51.57.3.86-1.21-2.26-1.19.51-2,7.06-4,1.87,1L545,58.32l.59.31Zm-1-2.7,1.85-2.58-3.35,1.79Z"/><circle class="cls-5" cx="537.6" cy="56.59" r="5.47" transform="translate(-2.97 54.9) rotate(-5.83)"/><ellipse class="cls-5" cx="533.17" cy="56.39" rx="2.13" ry="4.82" transform="translate(-2.97 54.45) rotate(-5.83)"/><path class="cls-1" d="M659.37,46l2.46,6.4S663.18,49.8,669,47l.89,5.28s-4.76,8.65-9.48,8.23l-9.89-9.11,5.59-3.81Z"/><path class="cls-1" d="M632.68,30.1s-7.87-7.77-13.39-5.39L616.84,34,622,37.68l2.25-4.46s4.84,6.52,6.73,7.62S632.68,30.1,632.68,30.1Z"/><circle class="cls-2" cx="656.99" cy="25.06" r="22"/><path class="cls-2" d="M682.9,38.17a71.17,71.17,0,0,1-12.07-1.56c-7-1.33-14-3.07-14.09-3.08l.48-1.94C669,34.52,682.54,37,684.88,36c-.38-.57-2.1-2.26-9.84-6.21l.91-1.78c9.92,5.06,11.54,7.09,10.93,8.71C686.59,37.46,685.93,38.17,682.9,38.17Z"/><path class="cls-2" d="M677,46.72c-2.24,0-7.5-1.2-20.33-6.22l.73-1.86c7.31,2.86,15.8,5.71,18.88,6.12a46.45,46.45,0,0,0-6.13-4.34l1.07-1.69c7.87,5,8.09,6.18,7.56,7.23C678.57,46.26,678.34,46.72,677,46.72Z"/><rect class="cls-2" x="672.58" y="39.46" width="14.56" height="2" transform="translate(145.87 463.19) rotate(-41.77)"/><rect class="cls-2" x="673.29" y="37.04" width="11.4" height="2" transform="translate(155.73 472.4) rotate(-42.9)"/><ellipse class="cls-3" cx="664.58" cy="28.87" rx="7.46" ry="3.82" transform="translate(439.77 654.93) rotate(-72.73)"/><ellipse class="cls-3" cx="673.04" cy="28.03" rx="6.19" ry="3.17" transform="translate(446.52 662.43) rotate(-72.73)"/><circle class="cls-2" cx="665.36" cy="28.84" r="1.65"/><circle class="cls-2" cx="673.88" cy="27.79" r="1.41"/><path class="cls-2" d="M661.28,23s3.14,7.46,8.08,6.59.08-10.91.08-10.91Z"/><path class="cls-2" d="M678.29,24.31s-8.48,6.55-9.65,4.88,2.83-8.65,2.83-8.65S680.08,21.6,678.29,24.31Z"/><ellipse class="cls-2" cx="638.53" cy="38.63" rx="7.39" ry="15.14" transform="translate(123.59 418.17) rotate(-39.85)"/><ellipse class="cls-2" cx="654.52" cy="46.8" rx="10.71" ry="4.95"/><path class="cls-2" d="M655.62,50,641.86,67.69a39.75,39.75,0,0,0-17.25-1.87l6.22-27.18,15.41,7.15Z"/><polygon class="cls-4" points="661.17 64.08 664.17 78.25 658.5 81.83 651.59 70.28 661.17 64.08"/><ellipse class="cls-5" cx="608.21" cy="63.08" rx="9.52" ry="3.58" transform="translate(133.53 448.54) rotate(-45)"/><ellipse class="cls-5" cx="667.61" cy="80.54" rx="10.76" ry="4.28" transform="translate(6.85 205.37) rotate(-17.58)"/><path class="cls-4" d="M620.87,67,614,59.31c-1.82,0-2.82,2.17-2.51,5.23l5.83,12.13Z"/><ellipse class="cls-2" cx="625.96" cy="69.5" rx="11.77" ry="6.68" transform="matrix(0.68, -0.74, 0.74, 0.68, 150.86, 482.94)"/><circle class="cls-5" cx="675.31" cy="46.95" r="6.71" transform="translate(58.36 325.55) rotate(-28.28)"/><ellipse class="cls-5" cx="670.2" cy="48.81" rx="2.61" ry="5.92" transform="translate(56.87 323.35) rotate(-28.28)"/><circle class="cls-5" cx="618.39" cy="40.01" r="5.47" transform="matrix(0.27, -0.96, 0.96, 0.27, 410.77, 623.88)"/><ellipse class="cls-5" cx="620.2" cy="35.97" rx="2.13" ry="4.82" transform="translate(415.97 622.69) rotate(-74.13)"/><path class="cls-4" d="M636.85,60l-5.19-2.71L634.26,52l1.79-.7,2.84,1.51L640,51l-2.33-1.25-.6,1.12-1.74-.93,1.2-2.41,1.72-.74L642.33,49l.29,1.73-2.52,4-1.55.58-3-1.6-1.42,2.64,2.2,1.15.53-.91,1.57.83Z"/><path class="cls-4" d="M644.38,60.19l-.53-.28-.9,1.19.51.27-1.13,1.47-2.82-1.47,1-1.51.57.3.86-1.21-2.26-1.19.51-2,7.06-4,1.87,1L645,58.32l.59.31Zm-1-2.7,1.85-2.58-3.35,1.79Z"/><ellipse class="cls-2" cx="646.89" cy="65.64" rx="15.36" ry="5.62" transform="translate(-2.8 91.67) rotate(-8.09)"/><path class="cls-1" d="M730.9,30.48s-9.76-5.2-14.37-1.34l.31,9.61,6,2,.88-4.92s6.49,4.86,8.63,5.38S730.9,30.48,730.9,30.48Z"/><circle class="cls-2" cx="756.99" cy="25.06" r="22"/><path class="cls-2" d="M782.9,38.17a71.17,71.17,0,0,1-12.07-1.56c-7-1.33-14-3.07-14.09-3.08l.48-1.94C769,34.52,782.54,37,784.88,36c-.38-.57-2.1-2.26-9.84-6.21l.91-1.78c9.92,5.06,11.54,7.09,10.93,8.71C786.59,37.46,785.93,38.17,782.9,38.17Z"/><path class="cls-2" d="M777,46.72c-2.24,0-7.5-1.2-20.33-6.22l.73-1.86c7.31,2.86,15.8,5.71,18.88,6.12a46.45,46.45,0,0,0-6.13-4.34l1.07-1.69c7.87,5,8.09,6.18,7.56,7.23C778.57,46.26,778.34,46.72,777,46.72Z"/><rect class="cls-2" x="772.58" y="39.46" width="14.56" height="2" transform="translate(171.29 529.81) rotate(-41.77)"/><rect class="cls-2" x="773.29" y="37.04" width="11.4" height="2" transform="translate(182.48 540.47) rotate(-42.9)"/><ellipse class="cls-3" cx="764.58" cy="28.87" rx="7.46" ry="3.82" transform="translate(510.09 750.43) rotate(-72.73)"/><ellipse class="cls-3" cx="773.04" cy="28.03" rx="6.19" ry="3.17" transform="translate(516.84 757.92) rotate(-72.73)"/><circle class="cls-2" cx="765.36" cy="28.84" r="1.65"/><circle class="cls-2" cx="773.88" cy="27.79" r="1.41"/><path class="cls-2" d="M761.28,23s3.14,7.46,8.08,6.59.08-10.91.08-10.91Z"/><path class="cls-2" d="M778.29,24.31s-8.48,6.55-9.65,4.88,2.83-8.65,2.83-8.65S780.08,21.6,778.29,24.31Z"/><ellipse class="cls-2" cx="738.53" cy="38.63" rx="7.39" ry="15.14" transform="translate(146.82 482.25) rotate(-39.85)"/><path class="cls-1" d="M760.15,45.32l-.7,6.82s2.4-1.75,8.83-1.65l-1.58,5.12s-8.15,5.57-12.17,3.07l-4.72-12.59,6.7-.88Z"/><circle class="cls-5" cx="773.95" cy="53.33" r="6.71" transform="translate(-1.12 20.04) rotate(-1.48)"/><ellipse class="cls-5" cx="768.56" cy="52.68" rx="2.61" ry="5.92" transform="translate(-1.11 19.9) rotate(-1.48)"/><ellipse class="cls-2" cx="754.52" cy="46.8" rx="10.71" ry="4.95"/><path class="cls-2" d="M755.62,50,741.86,67.69a39.75,39.75,0,0,0-17.25-1.87l6.22-27.18,15.41,7.15Z"/><polygon class="cls-4" points="752.38 71 746.33 91.04 739.76 92.37 739 71 752.38 71"/><ellipse class="cls-5" cx="710.23" cy="69.95" rx="9.52" ry="3.58" transform="translate(357.26 690.22) rotate(-65.98)"/><path class="cls-4" d="M723.45,69l-9.16-4.69c-1.69.65-1.85,3-.47,5.78l9.79,9.24Z"/><ellipse class="cls-2" cx="728.33" cy="69.5" rx="11.77" ry="6.68" transform="translate(376.46 710.97) rotate(-66.7)"/><circle class="cls-5" cx="720.04" cy="44.05" r="5.47" transform="translate(-0.49 9.01) rotate(-0.72)"/><ellipse class="cls-5" cx="720.63" cy="39.67" rx="4.82" ry="2.13" transform="translate(-0.44 9.02) rotate(-0.72)"/><path class="cls-4" d="M736.85,60l-5.19-2.71L734.26,52l1.79-.7,2.84,1.51L740,51l-2.33-1.25-.6,1.12-1.74-.93,1.2-2.41,1.72-.74L742.33,49l.29,1.73-2.52,4-1.55.58-3-1.6-1.42,2.64,2.2,1.15.53-.91,1.57.83Z"/><path class="cls-4" d="M744.38,60.19l-.53-.28-.9,1.19.51.27-1.13,1.47-2.82-1.47,1-1.51.57.3.86-1.21-2.26-1.19.51-2,7.06-4,1.87,1L745,58.32l.59.31Zm-1-2.7,1.85-2.58-3.35,1.79Z"/><ellipse class="cls-2" cx="739.58" cy="66.7" rx="5.62" ry="14.81" transform="translate(516.41 774.95) rotate(-77.66)"/><path class="cls-5" d="M735.47,92.26l6.13,4.63h17.25s2.88-8.12-13.12-5.87l-6.3-2Z"/></svg>